<?xml version="1.0" encoding="utf-8"?>
<!-- Generator: Adobe Illustrator 23.0.0, SVG Export Plug-In . SVG Version: 6.00 Build 0)  -->
<svg version="1.1" id="Capa_1" xmlns="http://www.w3.org/2000/svg" xmlns:xlink="http://www.w3.org/1999/xlink" x="0px" y="0px"
	 viewBox="0 0 16 16" style="enable-background:new 0 0 16 16;" xml:space="preserve">
<path d="M1.8,3.8c0,0,3.2-2.6,4.9,2c0,0,1,5.3-5.9,4c0,0,4.3,4.2,7.5,0.2l0.1-0.2c0,0,3,4.6,6.9,6.1c0,0-3.7-4-5.3-8.3
	c0,0-2.5-7.6-6.8-5.4C3.1,2.3,2.4,2.6,1.8,3.8z"/>
<path d="M16,8c0,0-4.1,0.7-6-2.3H9.7c0,0,1.2,1.9,1.2,2.6C10.9,8.4,13.8,9.7,16,8z"/>
<path d="M2.5,5.3L0.8,4C0.8,4,0,4.4,0,3.4l0.3,0.3l0.2-0.1l0.1-0.4L0.2,2.9c0,0,0.8-0.4,0.9,0.6l1.6,1.3c0,0,0.9-0.4,0.9,0.6
	L3.2,5.2L3.1,5.4l0,0.3l0.3,0.2h0C3.4,5.9,2.8,6.6,2.5,5.3z"/>
<ellipse cx="9.5" cy="2.3" rx="1.8" ry="2.1"/>
</svg>
