<svg version="1.1" xmlns="http://www.w3.org/2000/svg" xmlns:xlink="http://www.w3.org/1999/xlink"
                        viewBox="0 0 349.7 64.2" style="enable-background:new 0 0 349.7 64.2;" xml:space="preserve">
    <path fill="#ffffff" d="M11.6,14.5c0,0,18.3-9.7,28.1,7.3c0,0,5.8,19.8-34.1,15c0,0,24.6,15.7,43.1,0.8l0.6-0.6c0,0,17.3,17,39.6,22.9
        c0,0-21.2-15-30.8-30.8c0,0-14.6-28.6-39.4-20.4C18.7,8.8,14.7,10,11.6,14.5z"/>
    <path fill="#ffffff" d="M93.2,30c0,0-23.9,2.6-34.8-8.5h-1.5c0,0,6.9,7.1,7.1,9.9C63.9,31.4,80.3,36.4,93.2,30z"/>
    <path fill="#ffffff" d="M262.7,22.4c0,0-35.6-14.9-155.5-15.7c0,0-1.3-0.5,0-1.2c0,0,155.8-6.1,225.5,16.9c0,0,32.7,9.9,2.5,20.1
        c0,0,2.9-6.5-10.8-5c0,0,1.5-4.9-10.6-2.4l7.5-3.2c0,0,11-5.6-7.3-10h-29.4c0,0-2.1-0.2-3.1,4.4l-5.6-3.5L262.7,22.4z"/>
    <path fill="#ffffff" d="M291.5,31.8v-0.6h-8.7l-1.9,5.9C280.9,37.2,286.1,31.2,291.5,31.8z"/>
    <path fill="#ffffff" d="M327.7,44.8c0,0-2.9,1.4-5.2-1.1h-36.4l-4.8-3.5l-3.5,3.5l-10.4-0.2c0,0-15.6,13.8-159.1,16.4
        c0,0-2.5,0.2-0.8,1.4C107.6,61.3,281.3,67.1,327.7,44.8z"/>
    <path fill="#ffffff" d="M147.8,26.5c0,0,1.9-3.3,6.9-4.1c0,0,35.2-0.6,36.7,0c0,0,6.3,2,6.9,4.1c0,0,3.1-3.5,3.8-3.6
        c0,0-25-19.3-60.8-2.1v1.1C141.5,21.8,147,23.6,147.8,26.5z"/>
    <path fill="#ffffff" d="M146.6,37.5c0,0,2.1,5.8,10.4,5.6h38.9l1.9-0.6c0,0,2.5-0.8,4.4,0.6c0,0-9.2,14.7-47.5,8.1
        c0,0-10.8-0.8-19.2-10.2C135.5,41,141.5,40.5,146.6,37.5z"/>
    <path fill="#ffffff" d="M144.1,35.2v-8.7c0,0-3.7-3.5-7.5-4.1h-32.5c0,0-7.9,1.2-7.9,5.6V41l10.8,0.5v-14c0,0,1-1.1,2.5-0.9h20.2
        c0,0,1.7-0.2,1.7,1.1v6.1c0,0,0.4,0.8-2.7,0.6l-19.2-0.2l-0.2,4.6l27.3-0.2C136.6,38.5,143.8,37.3,144.1,35.2z"/>
    <path fill="#ffffff" d="M301.7,35.6l16.7-5.3c0,0,8.7-3.3-4-5.9h-30l0.4,4.4L304,29c0,0,2.1,0,1,1.1l-17.9,5.2c0,0-7.1,4.9,1.2,5.9
        h33.1l-0.6-4h-21c0,0-1.2-1.2,0.4-1.4L301.7,35.6z"/>
    <path fill="#ffffff" d="M202.2,40.8h13.1l-0.6-13.1c0,0,0.4-1.2,4.4-1.2h6.9v-4.1h-15.4c0,0-8.5,2-8.5,4.1V40.8z"/>
    <path fill="#ffffff" d="M246.1,31.2v3.3l28.9-0.5c0,0,4-0.9,4-2.4v-3.8c0,0-2.3-2.9-4.8-2.9h-35.6c0,0-6.3,1.2-6.5,3.6v7.9
        c0,0,3.7,4.1,6.5,4.1l39.1,0.5v-4h-32.9c0,0-1.2-0.2-1.2-1.5l0.2-6.4l23.3-0.2c0,0,1.2-0.2,1.2,0.2v1.1c0,0-0.4,0.8-1.2,0.8h-20.8
        L246.1,31.2z"/>
    <path fill="#ffffff" d="M15.2,20.1l-9.7-4.9c0,0-4.5,1.3-4.5-2.4l1.6,1L4,13.4L4.6,12l-2.2-1c0,0,4.4-1.5,4.9,2.4l9.5,4.7
        c0,0,5.1-1.3,5.3,2.4l-2.6-0.7l-0.8,0.5l-0.2,1l1.6,0.8h0.2C20.4,22.1,17,24.8,15.2,20.1z"/>
    <ellipse fill="#ffffff" cx="55.5" cy="8.7" rx="10.1" ry="7.7"/>
    <path fill="#ffffff" d="M162.4,30.2v3.3l28.9-0.5c0,0,4-0.9,4-2.4v-3.8c0,0-2.3-2.9-4.8-2.9h-35.6c0,0-6.3,1.2-6.5,3.6v7.9
        c0,0,3.7,4.1,6.5,4.1l39.1,0.5v-4h-32.9c0,0-1.2-0.2-1.2-1.5l0.2-6.4l23.3-0.2c0,0,1.2-0.2,1.2,0.2v1.1c0,0-0.4,0.8-1.2,0.8h-20.8
        L162.4,30.2z"/>
    <ellipse fill="#ffffff" cx="327.2" cy="41.8" rx="3" ry="1.9"/>
</svg>
